<?xml version="1.0" encoding="UTF-8"?>
<svg width="20px" height="18px" viewBox="0 0 20 18" version="1.1" xmlns="http://www.w3.org/2000/svg" xmlns:xlink="http://www.w3.org/1999/xlink">
    <!-- Generator: Sketch 48.2 (47327) - http://www.bohemiancoding.com/sketch -->
    <title>ic_organization</title>
    <desc>Created with Sketch.</desc>
    <defs></defs>
    <g id="従業員検索" stroke="none" stroke-width="1" fill="none" fill-rule="evenodd" transform="translate(-50.000000, -189.000000)">
        <g id="#guide" transform="translate(32.000000, 87.000000)" fill="#545454" fill-rule="nonzero">
            <g id="ic_organization" transform="translate(18.735759, 102.253196)">
                <polygon id="Shape" points="16.6408317 11.9311623 16.6408317 8.16342687 9.73331665 8.16342687 9.73331665 5.0236473 11.9311623 5.0236473 11.9311623 0 6.90751504 0 6.90751504 5.0236473 9.10536074 5.0236473 9.10536074 8.16342687 2.1978457 8.16342687 2.1978457 11.9311623 0 11.9311623 0 16.9548097 5.0236473 16.9548097 5.0236473 11.9311623 2.82580161 11.9311623 2.82580161 8.79138278 9.10536074 8.79138278 9.10536074 11.9311623 6.90751504 11.9311623 6.90751504 16.9548097 11.9311623 16.9548097 11.9311623 11.9311623 9.73331665 11.9311623 9.73331665 8.79138278 16.0128758 8.79138278 16.0128758 11.9311623 13.8150301 11.9311623 13.8150301 16.9548097 18.8386774 16.9548097 18.8386774 11.9311623"></polygon>
            </g>
        </g>
    </g>
</svg>